<svg width="32" height="32" viewBox="0 0 32 32" fill="none" xmlns="http://www.w3.org/2000/svg">
<path fill-rule="evenodd" clip-rule="evenodd" d="M10.9218 6.74895C11.9072 5.38034 13.5407 4.33325 16 4.33325C18.4593 4.33325 20.0928 5.38034 21.0782 6.74895C22.0269 8.06656 22.3333 9.61767 22.3333 10.6666V14.9999H23.2C24.1941 14.9999 25 15.8058 25 16.7999V25.8666C25 26.8607 24.1941 27.6666 23.2 27.6666H8.8C7.80589 27.6666 7 26.8607 7 25.8666V16.7999C7 15.8058 7.80589 14.9999 8.8 14.9999H9.66667V10.6666C9.66667 9.61767 9.97311 8.06656 10.9218 6.74895ZM11.6667 14.9999H20.3333V10.6666C20.3333 9.93772 20.1064 8.82216 19.4551 7.91756C18.8405 7.06394 17.8074 6.33325 16 6.33325C14.1926 6.33325 13.1595 7.06394 12.5449 7.91756C11.8936 8.82216 11.6667 9.93772 11.6667 10.6666V14.9999ZM9 16.9999V25.6666H23V16.9999H9Z" fill="white"/>
</svg>
